<?xml version="1.0" encoding="UTF-8" standalone="no"?>
<!-- Created with Inkscape (http://www.inkscape.org/) -->

<svg
   xmlns:dc="http://purl.org/dc/elements/1.1/"
   xmlns:cc="http://creativecommons.org/ns#"
   xmlns:rdf="http://www.w3.org/1999/02/22-rdf-syntax-ns#"
   xmlns:svg="http://www.w3.org/2000/svg"
   xmlns="http://www.w3.org/2000/svg"
   xmlns:sodipodi="http://sodipodi.sourceforge.net/DTD/sodipodi-0.dtd"
   xmlns:inkscape="http://www.inkscape.org/namespaces/inkscape"
   width="456.70084"
   height="456.73038"
   viewBox="0 0 120.83542 120.84325"
   version="1.1"
   id="svg8"
   inkscape:version="0.48.0 r9654"
   sodipodi:docname="btnConfig.svg">
  <defs
     id="defs2">
    <marker
       inkscape:stockid="Arrow2Sstart"
       orient="auto"
       refY="0"
       refX="0"
       id="Arrow2Sstart"
       style="overflow:visible"
       inkscape:isstock="true">
      <path
         id="path848"
         style="fill:#000000;fill-opacity:1;fill-rule:evenodd;stroke:#000000;stroke-width:0.625;stroke-linejoin:round;stroke-opacity:1"
         d="M 8.7185878,4.0337352 -2.2072895,0.01601326 8.7185884,-4.0017078 c -1.7454984,2.3720609 -1.7354408,5.6174519 -6e-7,8.035443 z"
         transform="matrix(0.3,0,0,0.3,-0.69,0)"
         inkscape:connector-curvature="0" />
    </marker>
    <marker
       inkscape:stockid="Arrow1Sstart"
       orient="auto"
       refY="0"
       refX="0"
       id="Arrow1Sstart"
       style="overflow:visible"
       inkscape:isstock="true">
      <path
         id="path830"
         d="M 0,0 5,-5 -12.5,0 5,5 0,0 z"
         style="fill:#000000;fill-opacity:1;fill-rule:evenodd;stroke:#000000;stroke-width:1pt;stroke-opacity:1"
         transform="matrix(0.2,0,0,0.2,1.2,0)"
         inkscape:connector-curvature="0" />
    </marker>
    <marker
       inkscape:stockid="DotL"
       orient="auto"
       refY="0"
       refX="0"
       id="DotL"
       style="overflow:visible"
       inkscape:isstock="true">
      <path
         id="path879"
         d="m -2.5,-1 c 0,2.76 -2.24,5 -5,5 -2.76,0 -5,-2.24 -5,-5 0,-2.76 2.24,-5 5,-5 2.76,0 5,2.24 5,5 z"
         style="fill:#000000;fill-opacity:1;fill-rule:evenodd;stroke:#000000;stroke-width:1pt;stroke-opacity:1"
         transform="matrix(0.8,0,0,0.8,5.92,0.8)"
         inkscape:connector-curvature="0" />
    </marker>
  </defs>
  <sodipodi:namedview
     id="base"
     pagecolor="#ffffff"
     bordercolor="#666666"
     borderopacity="1.0"
     inkscape:pageopacity="0.0"
     inkscape:pageshadow="2"
     inkscape:zoom="0.7"
     inkscape:cx="143.36312"
     inkscape:cy="326.43196"
     inkscape:document-units="px"
     inkscape:current-layer="layer1"
     showgrid="false"
     units="px"
     inkscape:window-width="988"
     inkscape:window-height="742"
     inkscape:window-x="32"
     inkscape:window-y="-4"
     inkscape:window-maximized="1"
     fit-margin-top="0"
     fit-margin-left="0"
     fit-margin-right="0"
     fit-margin-bottom="0" />
  <metadata
     id="metadata5">
    <rdf:RDF>
      <cc:Work
         rdf:about="">
        <dc:format>image/svg+xml</dc:format>
        <dc:type
           rdf:resource="http://purl.org/dc/dcmitype/StillImage" />
        <dc:title />
      </cc:Work>
    </rdf:RDF>
  </metadata>
  <g
     inkscape:label="Camada 1"
     inkscape:groupmode="layer"
     id="layer1"
     transform="translate(-6.4822918,-171.3765)">
    <path
       style="fill:#000000;fill-opacity:1;stroke:#000000;stroke-width:0.24974065"
       d="m 61.011595,171.50137 0,18.65251 c -5.713227,1.35401 -10.986583,3.83796 -15.569768,7.21126 L 30.3013,185.01859 l -12.401183,15.21077 14.77372,12.04998 c -0.962931,1.85301 -1.791881,3.78494 -2.481798,5.78305 l -23.5848819,0 0,19.62025 21.5791529,0 c 0.568404,4.44519 1.8149,8.68018 3.629044,12.5963 l -14.500567,13.34551 13.290885,14.43814 13.337711,-12.26852 c 4.917413,3.96097 10.722229,6.86234 17.068212,8.36631 l 0,17.9345 19.628053,0 0,-17.84865 c 6.535363,-1.48957 12.502518,-4.46296 17.536477,-8.54581 l 13.173815,10.73885 12.40118,-15.21076 -13.52502,-11.02762 c 1.7948,-3.89454 3.02536,-8.10224 3.59003,-12.51825 l 13.37672,0 0,-19.62025 -15.37465,0 c -1.24385,-3.60239 -2.94994,-6.99212 -5.04944,-10.09108 l 12.57288,-11.56612 -13.29089,-14.43812 -13.727923,12.64312 c -3.602998,-2.05012 -7.528184,-3.59513 -11.683179,-4.54216 l 0,-18.56666 -19.628053,0 z m 10.528128,45.70255 c 7.960631,0 14.414718,6.45408 14.414718,14.41471 0,7.96063 -6.454087,14.41472 -14.414718,14.41472 -7.96063,0 -14.414717,-6.45409 -14.414717,-14.41472 0,-7.96063 6.454087,-14.41471 14.414717,-14.41471 z"
       id="path2989"
       inkscape:connector-curvature="0" />
  </g>
</svg>
